<?xml version="1.0" encoding="utf-8"?>
<svg xmlns="http://www.w3.org/2000/svg"
     xmlns:xlink="http://www.w3.org/1999/xlink"
     width="320" height="247"
     viewBox="0 0 320 247"
     preserveAspectRatio="xMinYMin meet">
<g transform="matrix(5.401650662589128,0,0,-5.401650662589128,-560.9447235814619,-21.191622159939637)">
<path fill-rule="evenodd"
  fill="#CCCCCC"
  opacity="1"
  stroke="#555555"
  stroke-width="0.18512859539877732"
  stroke-opacity="0.9"
  d="M164.088,-20.108L164.030,-20.106L164.088,-20.249L164.088,-50.816L102.847,-50.816L102.847,-4.387L103.868,-5.037L104.710,-5.873L105.818,-5.852L105.857,-4.306L106.109,-3.062L106.002,-2.923L110.223,-2.923L110.224,-2.934L111.703,-2.994L112.068,-3.478L113.257,-3.119L113.756,-3.439L114.469,-3.496L114.865,-4.107L116.001,-3.657L116.148,-4.013L116.423,-2.923L118.823,-2.923L119.078,-3.487L119.499,-3.494L119.654,-4.459L119.367,-5.380L119.796,-5.673L120.431,-5.528L120.305,-2.932L120.324,-2.923L120.950,-2.923L120.898,-3.602L121.619,-4.189L121.490,-4.575L121.738,-4.851L122.720,-4.464L122.236,-5.283L122.629,-5.635L123.162,-5.341L123.171,-4.684L122.272,-3.530L122.455,-3.186L122.260,-2.923L128.102,-2.923L127.899,-3.393L129.990,-3.446L130.835,-3.858L130.471,-3.094L129.827,-2.923L132.149,-2.923L132.754,-3.312L132.757,-3.746L132.984,-4.113L133.368,-4.025L133.663,-3.539L135.165,-4.463L135.989,-4.546L137.928,-5.393L138.408,-6.233L138.669,-7.320L138.039,-7.598L137.614,-8.412L138.881,-8.381L139.128,-8.096L140.143,-8.297L141.034,-9.118L142.628,-9.327L143.414,-8.983L143.286,-8.245L144.744,-7.630L146.048,-8.067L146.568,-8.943L147.913,-10.130L149.782,-10.393L150.028,-10.652L150.691,-10.583L150.802,-10.294L149.739,-9.873L150.039,-9.684L149.267,-9.514L149.307,-9.071L148.734,-9.105L148.085,-8.044L147.192,-7.388L146.971,-6.722L147.891,-6.614L147.648,-6.084L145.982,-5.466L145.830,-4.877L144.584,-3.861L141.918,-2.923L151.108,-2.923L151.384,-3.035L152.406,-3.790L152.827,-4.766L153.140,-4.500L153.020,-3.980L152.240,-3.240L151.683,-2.923L164.088,-2.923L164.088,-20.108zM143.562,-13.764L143.522,-12.834L143.159,-12.326L143.116,-11.906L142.867,-11.785L142.797,-11.157L142.515,-10.668L142.144,-11.043L141.687,-12.408L141.843,-12.742L141.651,-12.945L141.520,-13.698L141.702,-15.045L141.274,-16.389L140.875,-17.369L140.215,-17.711L139.261,-17.372L139.108,-17.063L138.303,-16.808L137.065,-15.871L135.500,-14.998L135.429,-14.715L136.078,-13.724L135.962,-13.325L136.305,-13.291L136.952,-12.352L136.493,-11.857L136.258,-12.049L135.883,-11.962L135.298,-12.249L134.679,-11.941L134.393,-12.042L133.551,-11.787L133.020,-11.376L132.357,-11.129L131.825,-11.274L132.557,-11.603L132.575,-12.114L131.735,-12.303L131.224,-12.184L130.618,-12.536L130.184,-13.107L130.339,-13.357L129.889,-13.619L129.410,-14.421L129.621,-14.970L128.360,-14.869L127.805,-14.277L127.066,-13.818L126.143,-14.096L126.125,-14.347L125.686,-14.231L125.670,-14.510L125.167,-14.680L124.380,-15.567L124.258,-16.328L123.817,-16.111L123.503,-16.596L123.859,-17.069L123.434,-17.269L123.013,-16.405L122.313,-17.255L122.242,-18.198L120.856,-19.684L119.805,-19.977L119.252,-19.953L118.836,-20.263L117.442,-20.747L117.166,-20.624L116.712,-20.702L114.648,-21.829L114.225,-22.517L114.150,-21.756L113.737,-22.476L113.843,-23.060L113.394,-24.385L114.216,-25.786L114.233,-26.298L113.937,-25.911L113.441,-25.621L113.778,-26.549L113.339,-26.116L114.049,-27.335L114.174,-28.118L114.617,-28.516L115.040,-29.461L114.997,-30.031L115.161,-30.602L115.690,-31.612L115.802,-32.205L115.715,-33.260L115.545,-33.487L115.049,-33.623L115.027,-34.197L116.625,-35.025L118.025,-35.065L119.007,-34.464L119.299,-34.509L119.894,-33.976L121.299,-33.821L122.183,-34.003L123.660,-33.890L124.029,-33.484L124.222,-32.959L126.149,-32.216L127.103,-32.282L129.536,-31.590L131.326,-31.496L132.288,-31.983L132.991,-32.011L134.274,-32.617L134.086,-32.848L135.239,-33.948L135.208,-34.479L135.989,-34.890L136.372,-34.095L136.997,-33.753L137.810,-32.900L137.890,-33.641L137.504,-34.130L137.352,-34.707L136.829,-35.261L137.719,-35.077L138.208,-34.385L138.450,-35.127L138.121,-35.612L139.083,-35.733L139.574,-36.138L139.992,-37.403L140.639,-38.019L143.610,-38.809L144.486,-38.085L145.032,-37.896L144.877,-38.417L146.318,-39.036L147.382,-38.219L148.305,-37.809L149.424,-37.773L149.997,-37.425L150.075,-36.420L150.328,-35.672L150.714,-35.173L151.709,-33.041L152.450,-32.550L152.892,-31.640L153.069,-30.350L153.512,-28.995L153.570,-28.110L153.093,-27.260L153.136,-26.071L152.855,-25.267L150.900,-23.462L150.727,-22.402L150.483,-22.556L150.077,-22.123L149.678,-22.343L149.289,-21.261L148.718,-20.634L148.848,-20.391L146.387,-18.958L146.064,-18.280L146.160,-17.762L145.889,-16.907L145.637,-16.785L145.485,-16.286L145.272,-15.428L145.375,-14.985L144.564,-14.171L143.922,-14.548L143.562,-13.764zM145.398,-40.792L144.744,-40.704L144.718,-41.163L145.295,-42.034L145.432,-42.694L146.048,-43.550L146.870,-43.635L147.565,-42.938L147.914,-43.212L148.017,-42.407L148.360,-42.062L148.289,-40.875L147.689,-40.808L146.364,-41.138L145.398,-40.792zM162.119,-10.483L161.917,-10.447L161.320,-10.205L161.700,-10.820L162.399,-10.826L162.119,-10.483zM151.983,-5.478L152.319,-4.868L152.339,-4.313L152.137,-4.149L151.538,-4.168L151.648,-4.757L150.808,-5.456L150.237,-5.532L150.140,-5.001L149.996,-5.026L149.846,-5.505L149.298,-5.584L148.402,-5.438L148.319,-5.747L149.710,-6.316L150.241,-6.318L151.301,-5.841L151.459,-5.560L151.983,-5.478zM155.880,-6.820L156.020,-6.540L154.760,-5.340L154.653,-5.042L154.514,-5.139L154.729,-5.901L155.167,-6.536L155.600,-6.920L155.880,-6.820zM157.538,-7.348L157.140,-7.022L156.543,-6.599L156.491,-6.766L156.902,-7.177L157.339,-7.405L157.538,-7.348zM159.875,-8.337L159.640,-8.020L158.820,-7.560L158.360,-7.320L158.211,-7.422L159.917,-8.538L159.875,-8.337zM161.680,-9.600L160.920,-8.320L160.580,-8.320L160.788,-8.918L161.529,-9.784L161.680,-9.600zM160.852,-9.873L160.363,-9.400L159.703,-9.243L159.640,-9.640L159.849,-9.794L160.852,-9.873zM124.436,-10.140L125.088,-9.393L127.336,-8.397L126.957,-8.273L125.086,-8.657L124.969,-8.893L123.980,-9.290L123.460,-10.240L123.580,-10.360L124.436,-10.140zM120.716,-10.240L120.775,-9.970L119.900,-9.361L118.968,-9.558L120.295,-10.259L120.716,-10.240zM117.900,-8.096L117.632,-8.449L117.084,-8.457L116.740,-9.033L119.126,-8.706L118.879,-8.281L118.261,-8.362L117.900,-8.096zM122.903,-8.094L122.007,-8.461L121.342,-8.537L120.715,-8.237L119.921,-8.445L119.924,-8.810L121.254,-8.934L122.757,-8.650L122.903,-8.094zM108.624,-6.778L108.487,-6.422L107.265,-5.955L106.052,-5.896L105.365,-6.851L106.281,-6.925L106.454,-7.355L108.278,-7.767L108.694,-7.642L111.522,-8.302L113.465,-8.349L114.564,-8.752L115.706,-8.371L114.479,-7.777L112.979,-7.594L112.615,-6.946L110.760,-6.465L110.539,-6.877L108.624,-6.778zM134.725,-6.214L134.727,-5.738L134.500,-5.445L134.113,-6.143L134.210,-6.895L134.725,-6.214zM127.249,-3.459L127.001,-3.129L125.989,-3.177L126.184,-3.607L126.875,-3.791L127.249,-3.459zM135.808,-2.923L135.458,-3.368L134.689,-2.923L135.808,-2.923z"/>
<g><polyline fill="none" stroke="#66cc99" stroke-width="0.37025719079755465" points="114.43177554258297,-8.264232674115126 114.80055808212612,-8.318260332754546 115.16962922235766,-8.371134596354503 115.53898313479684,-8.422855052693414 115.90861396312049,-8.473421293691883 116.27851582367715,-8.522832915732003 116.64868280600732,-8.571089519970114 117.01910897337058,-8.618190712643386 117.38978836327856,-8.664136105369401 117.76071498803483,-8.708925315440114 118.13188283528056,-8.7525579661082 118.5032858685461,-8.795033686867432 118.87491802780885,-8.836352113726347 119.24677323005672,-8.876512889475029 119.61884536985724,-8.915515663945087 119.99112831993227,-8.953360094263273 120.36361593173817,-8.990045845097805 120.73630203605121,-9.025572588898298 121.10918044355826,-9.059940006128182 121.48224494545227,-9.093147785490638 121.85548931403278,-9.12519562414786 122.22890730331135,-9.15608322793217 122.60249264962121,-9.185810311551442 122.97623907223175,-9.214376598786556 123.35014027396693,-9.241781822681716 123.72418994182851,-9.2680257257285 124.09838174762228,-9.293108060041375 124.47270934858929,-9.31702858752707 124.8471663880399,-9.339787080046523 125.22174649599187,-9.361383319568722 125.59644328981165,-9.381817098318463 125.97125037485904,-9.401088218915667 126.34616134513473,-9.419196494508107 126.72116978393097,-9.436141748896379 127.09626926448489,-9.451923816651307 127.47145335063435,-9.466542543224257 127.84671559747628,-9.479997785049875 128.2220495520274,-9.49228940964099 128.5974487538866,-9.503417295676789 128.97290673589987,-9.513381333082393 129.34841702482638,-9.522181423102 129.72397314200646,-9.529817478363572 130.09956860403096,-9.536289422936518 130.47519692341174,-9.54159719238161 130.85085160925325,-9.54574073379307 131.226526167925,-9.54872000583377 131.60221410373472,-9.550534978761686 131.97790891960224,-9.551185634450004 132.3536041177334,-9.550671966398605 132.7292932002944,-9.548993979738514 133.10496967008592,-9.5461516912284 133.48062703121747,-9.542145129243796 133.8562587897811,-9.536974333758385 134.23185845452437,-9.530639356317595 134.60741953752347,-9.523140260005086 134.98293555485432,-9.514477119401343 135.3584000272637,-9.504650020534182 135.7338064808385,-9.493659060822708 136.1091484476738,-9.481504349013022 136.4844194665394,-9.468186005106107 136.8596130835448,-9.453704160279 137.23472285280175,-9.438058956797825 137.60974233708544,-9.421250547923503 137.98466510849292,-9.403279097809856 138.35948474909927,-9.384144781394467 138.73419485161142,-9.363847784281917 139.10878902001883,-9.342388302619565 139.4832608702417,-9.319766542966162 139.8576040307758,-9.295982722152678 140.23181214333422,-9.27103706713633 140.60587886348583,-9.244929814846763 140.97979786128988,-9.2176612120252 141.35356282192737,-9.189231515056436 141.7271674463282,-9.159640989793372 142.10060545179442,-9.128889911374253 142.47387057261957,-9.096978564033334 142.84695656070318,-9.063907240903735 143.21985718616153,-9.029676243813501 143.59256623793323,-8.994285883074708 143.96507752438023,-8.957736477265371 144.33738487388425,-8.920028353004415 144.70948213543787,-8.881161844719678 145.08136317923044,-8.841137294409261 145.45302189722915,-8.799955051395406 145.8244522037541,-8.757615472072443 146.1956480360482,-8.714118919647035 146.56660335484145,-8.669465763872317 146.93731214490924,-8.623656380775039 147.3077684156247,-8.576691152376211 147.67796620150534,-8.52857046640507 148.04789956275317,-8.479294716006095 148.4175625857889,-8.428864299440475 148.78694938377947,-8.37727961977986 149.15605409715945,-8.32454108459458 149.52487089414547,-8.270649105634977 149.89339397124436,-8.215604098506773 150.26161755375415,-8.159406482339454 150.6295358962587,-8.102056679449085 150.9971432831146,-8.043555114994549 151.36443402893204,-7.983902216627436 151.7314024790474,-7.923098414136116 151.78867336656685,-8.31695462708275 151.84627499632347,-8.710034979186483 151.90421021806534,-9.102355215833668 151.96248191409535,-9.493930927564438 152.0210929997334,-9.884777556718383 152.0800464237862,-10.274910403952756 152.13934516902523,-10.664344634640253 152.1989922526728,-11.053095285153766 152.25899072689612,-11.441177269046213 152.3193436793103,-11.828605383130778 152.38005423348957,-12.215394313470338 152.4411255494876,-12.601558641281123 152.50256082436644,-12.987112848757823 152.56436329273498,-13.37207132482652 152.62653622729638,-13.756448370831334 152.68908293940535,-14.140258206161525 152.75200677963494,-14.523514973824184 152.81531113835322,-14.906232745969515 152.87899944631025,-15.288425529373452 152.943075175235,-15.67010727088476 153.00754183844327,-16.05129186284114 153.072402991456,-16.431993148460737 153.1376622326285,-16.812224927214803 153.20332320379114,-17.192000960187197 153.26938959090134,-17.571334975425795 153.33586512470686,-17.950240673292747 153.40275358142156,-18.32873173181806 153.4700587834129,-18.706821812063453 153.5377845999017,-19.084524563501365 153.6059349476751,-19.46185362941532 153.67451379181182,-19.83882265232838 153.74352514642086,-20.215445279464408 153.81297307539376,-20.59173516824914 153.8828616931702,-20.96770599185773 153.9531951655182,-21.34337144481374 154.023977710328,-21.718745248647995 154.09521359842114,-22.093841157622652 154.166907154374,-22.46867296452759 154.23906275735683,-22.843254506556914 154.31168484198852,-23.217599671271973 154.3847778992067,-23.591722402659396 154.45834647715498,-23.96563670729096 154.53239518208568,-24.339356660593634 154.60692867928068,-24.71289641323884 154.68195169398874,-25.08627019765878 154.757469012381,-25.459492334698798 154.8334854825242,-25.832577240416153 154.91000601537283,-26.20553943303361 154.98703558577975,-26.578393540058773 155.0645792335265,-26.95115430558027 155.14264206437298,-27.323836597750457 155.22122925112762,-27.69645541646807 155.30034603473786,-28.069025901271452 155.37999772540212,-28.441563339456025 155.46018970370275,-28.814083174429577 155.54092742176158,-29.186601014318594 155.62221640441774,-29.559132640841625 155.70406225042834,-29.931694018464228 155.78647063369294,-30.30430130385313 155.8694473045021,-30.67697085564587 155.9529980908104,-31.04971924455517 156.03712889953474,-31.42256326382719 156.12184571787836,-31.795519940073987 156.2071546146814,-32.16860654450186 156.293061741798,-32.541840604559674 156.3795733355014,-32.915239916029556 156.46669571791693,-33.28882255558846 156.5544352984842,-33.66260689386549 156.6427985754484,-34.03661160902637 156.73179213738223,-34.41085570091482 156.82142266473835,-34.78535850578452 156.9116969314338,-35.160139711657145 157.00262180646675,-35.53521937434313 157.09420425556615,-35.91061793416638 157.18645134287573,-36.28635623343537 157.2793702326722,-36.6624555347057 157.37296819111953,-37.03893753988455 157.46725258805932,-37.41582441022731 157.56223089883852,-37.79313878728528 157.65791070617536,-38.17090381486145 157.75429970206415,-38.54914316204132 157.8514056897205,-38.927881047367244 157.94923658556706,-39.3071422642299 158.04780042126157,-39.68695220755849 158.14710534576778,-40.067336901895054 158.24715962747035,-40.44832303094514 158.34797165633503,-40.829937968706794 158.44954994611487,-41.21220981228424 158.55190313660393,-41.59516741650382 158.6550399959394,-41.978840430459194 158.75896942295364,-42.363259336120905 158.86370044957673,-42.748455489160854 158.96924224329194,-43.13446116214988 159.07560410964376,-43.52130959030556 159.08817162211793,-43.56687815475182 158.5912911526868,-43.64953737524906 158.0935930487743,-43.73072948228455 157.59509043404267,-43.81044875712547 157.09579657260375,-43.88868953998823 156.59572486738756,-43.96544623254545 156.094888858454,-44.04071330043019 155.5933022212471,-44.114485275738694 155.09097876479296,-44.18675675952689 154.58793242984143,-44.25752242430017 154.08417728695136,-44.32677701649442 153.57972753452097,-44.3945153589454 153.07459749676272,-44.46073235334494 152.5688016216241,-44.52542298268135 152.062354478654,-44.58858231366296 151.55527075681624,-44.650205499121284 151.04756526224986,-44.71028778039237 150.53925291597798,-44.768824489673776 150.03034875156476,-44.82581105235556 149.5208679127223,-44.88124298932226 149.01082565086756,-44.9351159192243 148.50023732263054,-44.98742556071595 147.98911838731445,-45.03816773465823 147.47748440430848,-45.08733836628435 146.96535103045525,-45.13493348732522 146.4527340173723,-45.18094923809304 145.93964920873015,-45.225381869521364 145.42611253748706,-45.26822774515764 144.91214002308212,-45.3094833431087 144.39774776858744,-45.349145257935525 143.88295195782123,-45.38721020249466 143.36776885242202,-45.423675009726075 142.85221478888636,-45.45853663438424 142.33630617557046,-45.49179215471054 141.8200594896577,-45.523438774045715 141.30349127409266,-45.55347382237992 140.7866181344839,-45.58189475783891 140.26945673597595,-45.608699168105055 139.75202380009316,-45.63388477177028 139.2343361015554,-45.657449419621535 138.71641046506835,-45.67939109585411 138.1982637620892,-45.699707919214895 137.67991290756956,-45.71839814407192 137.161374856677,-45.735460161409044 136.64266660149696,-45.75089249974611 136.12380516771626,-45.76469382598185 135.60480761129037,-45.776862946158744 135.0856910150956,-45.7873988061505 134.56647248556789,-45.79630049226901 134.0471691493303,-45.803567231791504 133.52779814981008,-45.80919839340762 133.00837664384784,-45.8131934875837 132.4889217982996,-45.815552166846814 131.96945078663435,-45.816274225985865 131.44998078552817,-45.815359602170446 130.93052897145654,-45.81280837498712 130.411112517287,-45.808620766393716 129.89174858887358,-45.8027971405903 129.37245434165467,-45.7953380038083 128.8532469172559,-45.78624400401782 128.33414344010006,-45.77551593055234 127.81516101402552,-45.76315471365316 127.29631671891478,-45.7491614239326 126.77762760733481,-45.733537271757015 126.25911070119093,-45.71628360655107 125.74078298839592,-45.697401916023 125.22266141955555,-45.67689382531236 124.7047629046728,-45.65476109606195 124.18710430987178,-45.631005625413295 123.66970245414332,-45.60562944492894 123.1525741061134,-45.57863471944083 122.63573598083623,-45.55002374582806 122.11920473661365,-45.519798951723864 121.60299697184169,-45.48796289415418 121.08712922188636,-45.45451825810916 120.57161795598995,-45.419467855049255 120.0564795742091,-45.382814621347734 119.54173040438604,-45.34456161667126 119.02738669915463,-45.30471202229999 118.51346463298198,-45.26326913939029 117.99998029924751,-45.22023638718025 117.4869497073604,-45.1756173011418 116.97438877991651,-45.129415531079644 116.46231334989645,-45.08163483918114 115.95073915790519,-45.03227909801656 115.43968184945533,-44.98135228849501 114.92915697229398,-44.928858497775195 114.41917997377531,-44.87480191713526 113.90976619827894,-44.8191868398028 113.4009308846758,-44.76201765874785 112.89268916384185,-44.70329886444073 112.38505605622098,-44.64303504257688 111.87804646943763,-44.58123087177137 111.37167519595998,-44.51789112122484 110.8659569108146,-44.453020648363726 110.36090616935324,-44.38662439645563 109.85653740507227,-44.318707392204225 109.3528649274857,-44.24927474332335 108.84990292005209,-44.17833163609476 108.34766543815607,-44.105883332910125 107.84616640714496,-44.03193516980013 107.94168097596024,-43.64203414172564 108.03645195646888,-43.25304501485817 108.13048789522352,-42.86493242546399 108.22379720990267,-42.477662069082385 108.31638819169974,-42.09120064931842 108.4082690076597,-41.7055158295596 108.49944770296493,-41.320576187413415 108.58993220317136,-40.936351171675966 108.67973031639625,-40.552811061659874 108.7688497354586,-40.16992692872064 108.85729803997397,-39.78767059983613 108.94508269840372,-39.406014623102266 109.03221107006108,-39.024932235019406 109.11869040707414,-38.64439732945471 109.20452785630711,-38.264384428171944 109.28973046124135,-37.88486865283012 109.37430516381609,-37.50582569835803 109.45825880623092,-37.12723180761943 109.54159813271028,-36.749063747289895 109.62432979123112,-36.371298784870035 109.70646033521457,-35.99391466676771 109.78799622518241,-35.61688959738422 109.86894383037934,-35.24020221914477 109.94930943036171,-34.86383159341791 110.02909921655359,-34.48775718227149 110.10831929377098,-34.111958831016494 110.18697568171463,-33.736416751493806 110.2650743164327,-33.361111506059714 110.34262105175367,-32.98602399223283 110.41962166068991,-32.61113542796253 110.49608183681342,-32.23642733748474 110.5720071956033,-31.861881537733364 110.64740327576673,-31.487480125273827 110.72227554053312,-31.11320546373173 110.79662937892253,-30.739040171688806 110.87047010698905,-30.36496711101911 110.9438029690393,-29.990969375642965 111.01663313882692,-29.617030280674193 111.08896572072359,-29.243133351939942 111.16080575086694,-28.869262315851866 111.23215819828604,-28.49540108960992 111.30302796600488,-28.121533771720216 111.37341989212433,-27.747644632809376 111.44333875088323,-27.373718106718904 111.51278925369876,-26.999738781864632 111.58177605018686,-26.62569139284536 111.650303729163,-26.251560812287472 111.71837681962367,-25.87733204291142 111.78599979170922,-25.50299020980781 111.85317705764822,-25.128520552910345 111.91991297268397,-24.75390841965479 111.98621183598341,-24.37913925781182 112.05207789152875,-24.004198608483872 112.11751532899244,-23.62907209925535 112.18252828459565,-23.253745437486575 112.24712084195065,-22.878204403742433 112.3112970328874,-22.50243484534558 112.37506083826479,-22.126422670047077 112.43841618876695,-21.75015383980436 112.50136696568448,-21.37361436465992 112.56391700168162,-20.996790296712334 112.62607008154902,-20.61966772417109 112.68782994294276,-20.24223276548955 112.74920027710998,-19.86447156356767 112.81018472960102,-19.48637028001797 112.87078690096884,-19.1079150894877 112.93101034745551,-18.729092174030907 112.99085858166643,-18.349887717523547 113.05033507323236,-17.970287900115693 113.10944324945946,-17.59027889271364 113.16818649596773,-17.209846851487452 113.22656815731798,-16.828977912395846 113.28459153762763,-16.4476581857238 113.3422599011756,-16.065873750626398 113.3995764729962,-15.683610649673131 113.45654443946304,-15.300854883386876 113.51316694886206,-14.917592404770822 113.56944711195473,-14.533809113819219 113.62538800253145,-14.149490852003916 113.68099265795514,-13.764623396733084 113.73626407969525,-13.379192455773898 113.79120523385272,-12.993183661635317 113.84581905167563,-12.606582565903214 113.90010843006591,-12.219374633523158 113.95407623207751,-11.831545237023354 114.00772528740568,-11.443079650673154 114.06105839286819,-11.053963044568622 114.11407831287791,-10.66418047864088 114.16678777990776,-10.273716896578996 114.21918949494737,-9.882557119661067 114.27128612795217,-9.4906858404874 114.32308031828478,-9.098087616607145 114.37457467514906,-8.704746864032467 114.4257717780167,-8.31064785063193 114.43177554258297,-8.264232674115126" opacity="0.8" /><circle cx="114.43177554258297" cy="-8.264232674115126" r="0.5553857861963319" stroke="#555555" stroke-width="0.18512859539877732" fill="#66cc99" opacity="0.6" /></g><path fill="none" opacity="0.8" stroke-width="0.14810287631902186" stroke="pink" d="M118.787455,-8.826734L118.451889,-12.153590L118.317511,-13.427796L117.957424,-16.695221L117.813046,-17.949763L117.425661,-21.174717L117.270131,-22.416048L116.852235,-25.615206L116.684216,-26.849850L116.232078,-30.040573L116.050010,-31.275530L115.559266,-34.477038L115.361321,-35.720305L114.826839,-38.955287L114.610861,-40.216617L114.026562,-43.513728L113.789988,-44.805875M123.174168,-9.229030L122.949091,-12.560210L122.858938,-13.836456L122.617306,-17.110138L122.520400,-18.367493L122.260320,-21.600795L122.155873,-22.845793L121.875153,-26.055663L121.762253,-27.294962L121.458341,-30.499193L121.335919,-31.739998L121.005825,-34.958467L120.872629,-36.209087L120.512827,-39.465489L120.367372,-40.736163L119.973676,-44.060746L119.814195,-45.365012M127.581817,-9.470621L127.468864,-12.804481L127.423616,-14.081987L127.302323,-17.359521L127.253671,-18.618605L127.123078,-21.857030L127.070624,-23.104277L126.929619,-26.320715L126.872899,-27.562867L126.720188,-30.775383L126.658660,-32.019777L126.492721,-35.248660L126.425747,-36.503800L126.244785,-39.773382L126.171610,-41.049814L125.973491,-44.391358L125.893212,-45.703124M132.000009,-9.551188L132.000009,-14.163888L132.000009,-18.702389L132.000009,-23.190546L132.000008,-27.652311L132.000008,-32.113222L132.000008,-36.602282L132.000008,-41.154692L132.000008,-45.816277M136.418201,-9.470621L136.531153,-12.804481L136.576401,-14.081987L136.697694,-17.359522L136.746346,-18.618605L136.876939,-21.857030L136.929393,-23.104277L137.070398,-26.320715L137.127117,-27.562867L137.279829,-30.775384L137.341357,-32.019777L137.507296,-35.248660L137.574270,-36.503800L137.755231,-39.773382L137.828407,-41.049814L138.026525,-44.391359L138.106804,-45.703124M140.825850,-9.229030L141.050926,-12.560210L141.141079,-13.836456L141.382711,-17.110139L141.479617,-18.367494L141.739697,-21.600795L141.844144,-22.845793L142.124864,-26.055663L142.237764,-27.294962L142.541676,-30.499193L142.664097,-31.739998L142.994191,-34.958467L143.127388,-36.209088L143.487189,-39.465489L143.632644,-40.736163L144.026340,-44.060746L144.185821,-45.365013M145.212563,-8.826735L145.548128,-12.153591L145.682506,-13.427796L146.042593,-16.695221L146.186971,-17.949763L146.574356,-21.174717L146.729886,-22.416048L147.147782,-25.615206L147.315801,-26.849850L147.767939,-30.040573L147.950007,-31.275530L148.440751,-34.477038L148.638695,-35.720305L149.173177,-38.955287L149.389155,-40.216618L149.973454,-43.513728L150.210029,-44.805875M149.568242,-8.264233L150.011891,-11.585334L150.189499,-12.856805L150.665275,-16.115804L150.855975,-17.366548L151.367470,-20.580209L151.572752,-21.816574L152.124109,-25.001215L152.345696,-26.229551L152.941720,-29.401971L153.181617,-30.629010L153.827906,-33.807576L154.088454,-35.040910L154.791576,-38.247007L155.075530,-39.495764L155.843230,-42.756005L156.153850,-44.031936M113.810518,-12.856805L117.056626,-13.284835L118.317511,-13.427796L121.589556,-13.738859L122.858938,-13.836456L126.148897,-14.029949L127.423616,-14.081987L130.723196,-14.157516L132.000009,-14.163888L135.300770,-14.121296L136.576401,-14.081987L139.869886,-13.921363L141.141079,-13.836456L144.418940,-13.558130L145.682506,-13.427796L148.936635,-13.032316L150.189499,-12.856805L152.426723,-12.510752M113.144042,-17.366547L116.506533,-17.803692L117.813046,-17.949763L121.204419,-18.267706L122.520400,-18.367493L125.931740,-18.565376L127.253671,-18.618605L130.675742,-18.695871L132.000009,-18.702389L135.423397,-18.658816L136.746346,-18.618605L140.161618,-18.454319L141.479617,-18.367494L144.877471,-18.082960L146.186971,-17.949763L149.558389,-17.545761L150.855975,-17.366548L153.172374,-17.013339M112.427265,-21.816573L115.914616,-22.265849L117.270131,-22.416048L120.789767,-22.743107L122.155873,-22.845793L125.697856,-23.049476L127.070624,-23.104277L130.624624,-23.183834L132.000009,-23.190546L135.555485,-23.145679L136.929393,-23.104277L140.475778,-22.935155L141.844144,-22.845793L145.371031,-22.553043L146.729886,-22.416048L150.227211,-22.000720L151.572752,-21.816574L153.973967,-21.453805M111.654321,-26.229550L115.275942,-26.694367L116.684216,-26.849850L120.342082,-27.188570L121.762253,-27.294962L125.445237,-27.506057L126.872899,-27.562867L130.569402,-27.645352L132.000008,-27.652311L135.698172,-27.605792L137.127117,-27.562867L140.815053,-27.387566L142.237764,-27.294962L145.903778,-26.991703L147.315801,-26.849850L150.948615,-26.420018L152.345696,-26.229551L154.837973,-25.854519M110.818400,-30.629010L114.584782,-31.113393L116.050010,-31.275530L119.857264,-31.628939L121.335919,-31.739998L125.171539,-31.960435L126.658660,-32.019777L130.509560,-32.105951L132.000008,-32.113222L135.852787,-32.064619L137.341357,-32.019777L141.182573,-31.836687L142.664097,-31.739998L146.480550,-31.423502L147.950007,-31.275530L151.729003,-30.827437L153.181617,-30.629010L155.771887,-30.238543M109.911562,-35.040909L113.834434,-35.549819L115.361321,-35.720305L119.330511,-36.092160L120.872629,-36.209087L124.874014,-36.441272L126.425747,-36.503800L130.444493,-36.594618L132.000008,-36.602282L136.020890,-36.551056L137.574270,-36.503800L141.582012,-36.310913L143.127388,-36.209088L147.107012,-35.875959L148.638695,-35.720305L152.575852,-35.249308L154.088454,-35.040910L156.784438,-34.631119M108.924487,-39.495763L113.017013,-40.035587L114.610861,-40.216617L118.756155,-40.611804L120.367372,-40.736163L124.549412,-40.983244L126.171610,-41.049814L130.373487,-41.146528L132.000008,-41.154692L136.204326,-41.100135L137.828407,-41.049814L142.017707,-40.844498L143.632644,-40.736163L147.789842,-40.381982L149.389155,-40.216618L153.497943,-39.716722L155.075530,-39.495764L157.885851,-39.061677" /><g><polyline fill="none" stroke="#66cc99" stroke-width="0.37025719079755465" points="131.9668167443275,-29.937394724476913 132.0831069109948,-29.895332384282696 132.19930712047568,-29.85318108662311 132.3154172850735,-29.810940919143803 132.43143731782234,-29.76861196928104 132.54736713248616,-29.726194324259883 132.66320664355715,-29.683688071093027 132.77895576625463,-29.641093296579268 132.89461441652375,-29.598410087301584 133.0101825110342,-29.55563852962622 133.12565996717896,-29.512778709700736 133.2410467030729,-29.469830713452676 133.35634263755156,-29.42679462658818 133.47154769016979,-29.383670534590443 133.58666178120046,-29.34045852271817 133.70168483163306,-29.297158676004237 133.81661676317242,-29.25377107925434 133.93145749823725,-29.210295817045267 134.0462069599589,-29.166732973723555 134.16086507217997,-29.123082633404454 134.27543175945286,-29.079344879969845 134.38990694703838,-29.0355197970674 134.50429056090448,-28.991607468108807 134.61858252772464,-28.947607976268564 134.73278277487674,-28.90352140448259 134.84689123044137,-28.85934783544668 134.96090782320047,-28.815087351615418 135.07483248263608,-28.770740035200436 135.1886651389286,-28.726305968169314 135.3024057229556,-28.68178523224418 135.41605416629022,-28.637177908900416 135.5296104011997,-28.592484079365036 135.643074360644,-28.547703824615663 135.75644597827423,-28.502837225379132 135.86972518843126,-28.457884362130024 135.98291192614406,-28.41284531508953 136.0960061271284,-28.36772016422396 136.2090077277852,-28.322508989243698 136.32191666519907,-28.277211869601597 136.43473287713675,-28.23182888449186 136.54745630204567,-28.186360112848828 136.66008687905233,-28.140805633345572 136.77262454796076,-28.095165524392613 136.88506924925102,-28.049439864136794 136.99742092407757,-28.003628730459827 137.10967951426787,-27.95773220097724 137.2218449623206,-27.911750353036947 137.33391721140427,-27.8656832637183 137.44589620535544,-27.819531009830374 137.55778188867743,-27.77329366791131 137.66957420653839,-27.726971314226617 137.78127310476992,-27.680564024768206 137.89287852986544,-27.634071875253074 138.0043904289786,-27.58749494112228 138.1158087499215,-27.54083329753952 138.2271334411633,-27.494087019390037 138.3383644518283,-27.4472561812795 138.44950173169482,-27.400340857532623 138.56054523119298,-27.35334112219224 138.67149490140332,-27.306257049017947 138.78235069405528,-27.25908871148509 138.89311256152533,-27.211836182783514 139.00378045683544,-27.16449953581635 139.1143543336513,-27.117078843198986 139.22483414628093,-27.069574177257966 139.33521984967254,-27.021985610029628 139.4455113994133,-26.97431321325918 139.55570875172748,-26.926557058399627 139.66581186347463,-26.87871721661042 139.77582069214822,-26.83079375875646 139.88573519587356,-26.78278675540696 139.9955553334065,-26.73469627683451 140.10528106413128,-26.686522393013725 140.21491234805924,-26.638265173620308 140.32444914582686,-26.589924688029893 140.43389141869415,-26.541501005317034 140.54323912854284,-26.492994194254035 140.5720827305448,-26.480178273452648 140.6274353847856,-26.576133892332173 140.68288287179496,-26.67206496003788 140.73842541454715,-26.76797168379292 140.79406323663784,-26.86385427092902 140.84979656228583,-26.959712928892795 140.90562561633504,-27.055547865251327 140.9615506242563,-27.151359287697932 141.0175718121487,-27.247147404058282 141.07368940674212,-27.342912422296138 141.12990363539842,-27.43865455051927 141.18621472611358,-27.534373996985593 141.24262290751935,-27.630070970108857 141.29912840888528,-27.725745678464946 141.35573146012024,-27.821398330797653 141.41243229177456,-27.91702913602498 141.46923113504155,-28.012638303244874 141.52612822175965,-28.108226041741815 141.5831237844141,-28.203792560992472 141.64021805613865,-28.299338070672185 141.6974112707177,-28.39486278066106 141.75470366258796,-28.490366901050155 141.81209546684033,-28.585850642147733 141.8695869192217,-28.681314214485866 141.92717825613704,-28.776757828826085 141.9848697146509,-28.87218169616648 142.04266153248963,-28.967586027747544 142.10055394804306,-29.062971035058794 142.15854720036637,-29.158336929845248 142.21664152918203,-29.25368392411383 142.27483717488164,-29.34901223013998 142.3331343785279,-29.444322060474185 142.39153338185633,-29.539613627948512 142.45003442727736,-29.634887145683187 142.50863775787806,-29.730142827093598 142.5673436174241,-29.82538088589653 142.62615225036168,-29.920601536117196 142.68506390181943,-30.01580499209604 142.74407881761024,-30.110991468495396 142.8031972442333,-30.206161180306562 142.86241942887588,-30.301314342856468 142.92174561941536,-30.396451171814764 142.98117606442102,-30.491571883200915 143.04071101315617,-30.58667669339109 143.10035071557988,-30.6817658191252 143.16009542234897,-30.776839477514155 143.21994538482005,-30.871897886047055 143.2799008550512,-30.96694126259825 143.33996208580433,-31.061969825434733 143.40012933054658,-31.156983793223485 143.46040284345275,-31.251983385038674 143.52078287940708,-31.346968820369362 143.581269694005,-31.44194031912658 143.64186354355542,-31.536898101651115 143.70256468508248,-31.63184238872117 143.76337337632762,-31.72677340155962 143.82428987575136,-31.82169136184207 143.8853144425355,-31.91659649170432 143.946447336585,-32.01148901375022 144.00768881852986,-32.10636915105976 144.0690391497272,-32.20123712719646 144.13049859226328,-32.29609316621575 144.19206740895535,-32.39093749267307 144.2537458633537,-32.48577033163138 144.31553421974365,-32.580591908669895 144.37743274314758,-32.67540244989196 144.4394416993268,-32.77020218193342 144.50156135478363,-32.86499133197096 144.56379197676347,-32.95977012773036 144.62613383325663,-33.054538797495276 144.68858719300047,-33.1492975701153 144.75115232548129,-33.244046675014914 144.81382950093644,-33.33878634220204 144.87661899035632,-33.433516802276806 144.9395210654863,-33.52823828644016 145.00253599882882,-33.62295102650291 145.06566406364533,-33.7176552548949 145.08234391732327,-33.742648491400516 144.9676186753927,-33.79481386804847 144.85277997233038,-33.846899501569084 144.73782782559294,-33.898905292179904 144.62276225340622,-33.950831139659144 144.50758327476825,-34.00267694334647 144.39229090945187,-34.054442602143624 144.2768851780076,-34.10612801451492 144.16136610176648,-34.157733078488036 144.0457337028428,-34.20925769165459 143.92998800413704,-34.260701751170544 143.81412902933843,-34.31206515375731 143.698156802928,-34.36334779570215 143.58207135018122,-34.414549572858775 143.4658726971708,-34.465670380648284 143.3495608707694,-34.516710114059606 143.23313589865276,-34.56766866765044 143.1165978093019,-34.6185459355476 142.9999466320064,-34.66934181144833 142.88318239686697,-34.72005618862037 142.7663051347981,-34.770688959903204 142.64931487753105,-34.821240017708526 142.5322116576165,-34.87170925402121 142.41499550842718,-34.92209656039987 142.2976664641609,-34.97240182797778 142.180224559843,-35.022624947463754 142.0626698313292,-35.07276580914274 141.94500231530856,-35.12282430287667 141.8272220493057,-35.172800318105466 141.70932907168404,-35.2226937438477 141.59132342164827,-35.27250446870162 141.473205139247,-35.322232380845776 141.3549742653757,-35.37187736804 141.23663084177912,-35.42143931762634 141.11817491105424,-35.47091811653 140.99960651665288,-35.52031365125999 140.88092570288427,-35.56962580791039 140.76213251491785,-35.61885447216097 140.643226998786,-35.66799952927846 140.5242092013865,-35.71706086411699 140.40507917048544,-35.76603836111955 140.28583695471968,-35.81493190431885 140.16648260359963,-35.863741377338194 140.04701616751174,-35.9124666633925 139.9274376977213,-35.96110764528926 139.80774724637504,-36.00966420542986 139.68794486650359,-36.058136225810365 139.56803061202433,-36.10652358802249 139.44800453774388,-36.154826173254904 139.3278666993606,-36.20304386229414 139.2076171534674,-36.251176535525694 139.08725595755416,-36.29922407293542 138.9667831700104,-36.34718635411005 138.84619885012768,-36.395063258239 138.72550305810248,-36.44285466411503 138.60469585503844,-36.490560450135554 138.483777302949,-36.53818049430387 138.3627474647601,-36.58571467423033 138.24160640431245,-36.63316286713333 138.12035418636424,-36.6805249498409 137.9989908765935,-36.72780079879164 137.87751654160078,-36.774990290036115 137.7559312489115,-36.82209329923791 137.63423506697848,-36.869109701675086 137.5124280651844,-36.91603937224154 137.3905103138443,-36.96288218544801 137.26848188420794,-37.00963801542353 137.1463428484625,-37.056306735917026 137.0240932797346,-37.10288822029809 136.90173325209312,-37.14938234155888 136.7792628405514,-37.195788972315235 136.65668212106968,-37.24210798480806 136.5339911705575,-37.28833925090474 136.4111900668762,-37.33448264210065 136.28827888884106,-37.38053802952053 136.16525771622383,-37.42650528391988 136.0421266297551,-37.47238427568659 136.0096111782349,-37.484478060568016 135.95273735421478,-37.38533144319415 135.8959730461567,-37.286197798345995 135.83931796038814,-37.187076775764794 135.78277180419363,-37.08796802690146 135.72633428581165,-36.98887120489563 135.67000511443098,-36.889785964555465 135.61378400018742,-36.79071196233708 135.55767065416043,-36.69164885632468 135.50166478836965,-36.59259630621049 135.4457661157717,-36.49355397327544 135.38997435025672,-36.394521520369516 135.33428920664508,-36.29549861189277 135.27871040068402,-36.19648491377627 135.2232376490444,-36.09748009346336 135.16787066931735,-35.99848381989111 135.11260918001102,-35.89949576347202 135.0574529005473,-35.800515596075854 135.00240155125846,-35.701542991011756 134.9474548533841,-35.60257762301029 134.89261252906763,-35.50361916820626 134.8378743013533,-35.40466730412103 134.78323989418286,-35.30572170964538 134.72870903239226,-35.206782065022715 134.67428144170867,-35.10784805183192 134.619956848747,-35.00891935297108 134.56573498100707,-34.90999565264072 134.51161556687018,-34.81107663632775 134.45759833559603,-34.712161990788985 134.40368301731957,-34.613251404035715 134.3498693430479,-34.514344565317316 134.29615704465715,-34.415441165106145 134.2425458548893,-34.316540895081715 134.18903550734913,-34.21764344811539 134.1356257365011,-34.11874851825554 134.08231627766637,-34.019855800712165 134.02910686701955,-33.920964991842176 133.97599724158584,-33.82207578913472 133.92298713923782,-33.7231878911966 133.87007629869245,-33.62430099773771 133.81726445950818,-33.525414809556914 133.7645513620818,-33.426529028527845 133.71193674764535,-33.32764335758494 133.6594203582634,-33.228757500709335 133.60700193682973,-33.12987116291538 133.55468122706472,-33.03098405023698 133.50245797351207,-32.932095869714104 133.450331921536,-32.833206329379145 133.39830281731835,-32.73431513824422 133.3463704078555,-32.63542200628754 133.29453444095554,-32.53652664444077 133.24279466523544,-32.43762876457596 133.19115083011795,-32.33872807949287 133.13960268582892,-32.23982430290622 133.08814998339423,-32.14091714943344 133.03679247463708,-32.04200633458201 132.98552991217505,-31.943091574737025 132.9343620494173,-31.844172587149497 132.8832886405616,-31.74524908992364 132.83230944059164,-31.64632080200554 132.7814242052743,-31.547387443170628 132.73063269115653,-31.448448734012363 132.6799346555628,-31.349504395930435 132.62932985659225,-31.250554151119136 132.57881805311598,-31.151597722555742 132.52839900477406,-31.052634833989533 132.47807247197312,-30.953665209930115 132.4278382158832,-30.854688575636374 132.37769599843534,-30.755704657105312 132.32764558231875,-30.656713181061264 132.27768673097802,-30.557713874944458 132.22781920861038,-30.45870646690086 132.17804278016328,-30.359690685770936 132.12835721133135,-30.26066626107898 132.07876226855396,-30.16163292302283 132.02925771901243,-30.062590402463147 131.9798433306274,-29.96353843091302 131.9668167443275,-29.937394724476913" opacity="0.8" /><circle cx="131.9668167443275" cy="-29.937394724476913" r="0.5553857861963319" stroke="#555555" stroke-width="0.18512859539877732" fill="#66cc99" opacity="0.6" /></g><path fill="none" opacity="0.8" stroke-width="0.14810287631902186" stroke="pink" d="M132.928087,-29.586034L133.346179,-30.404007L133.770629,-31.221343L134.201573,-32.038193L134.639151,-32.854714L135.083507,-33.671066L135.534790,-34.487413L135.993150,-35.303924L136.458743,-36.120774L136.931729,-36.938143L137.027228,-37.101695M133.883134,-29.228605L134.307021,-30.043706L134.737311,-30.858051L135.174141,-31.671789L135.617649,-32.485069L136.067979,-33.298047L136.525278,-34.110880L136.989698,-34.923733L137.461393,-35.736772L137.940523,-36.550171L138.037255,-36.712909M134.831911,-28.865154L135.261461,-29.677389L135.697456,-30.488750L136.140031,-31.299381L136.589325,-32.109428L137.045482,-32.919040L137.508647,-33.728371L137.978972,-34.537577L138.456610,-35.346819L138.941719,-36.156263L139.039652,-36.318191M135.774376,-28.495730L136.209457,-29.305105L136.651020,-30.113490L137.099202,-30.921023L137.554140,-31.727847L138.015976,-32.534106L138.484858,-33.339946L138.960933,-34.145519L139.444355,-34.950981L139.935282,-35.756490L140.034383,-35.917612M136.710491,-28.120379L137.150970,-28.926904L137.597967,-29.732322L138.051617,-30.536769L138.512056,-31.340382L138.979427,-32.143300L139.453875,-32.945666L139.935547,-33.747624L140.424597,-34.549324L140.921180,-35.350918L141.021415,-35.511238M137.640220,-27.739147L138.085967,-28.542832L138.538263,-29.345297L138.997242,-30.146671L139.463042,-30.947087L139.935802,-31.746681L140.415667,-32.545588L140.902785,-33.343950L141.397306,-34.141909L141.899385,-34.939613L142.000722,-35.099136M138.563531,-27.352076L139.014414,-28.152936L139.471876,-28.952461L139.936048,-29.750777L140.407067,-30.548014L140.885073,-31.344301L141.370208,-32.139770L141.862620,-32.934557L142.362457,-33.728800L142.869874,-34.522638L142.972281,-34.681370M139.480394,-26.959210L139.936284,-27.757260L140.398778,-28.553861L140.868007,-29.349137L141.344106,-30.143213L141.827215,-30.936213L142.317474,-31.728267L142.815029,-32.519503L143.320029,-33.310054L143.832626,-34.100055L143.936071,-34.258001M140.390784,-26.560589L140.851552,-27.355847L141.318946,-28.149543L141.793096,-28.941798L142.274137,-29.732733L142.762206,-30.522470L143.257444,-31.311131L143.759995,-32.098842L144.270005,-32.885729L144.787627,-33.671923L144.892078,-33.829091M132.378980,-30.758242L133.346179,-30.404007L134.307021,-30.043706L135.261461,-29.677389L136.209457,-29.305105L137.150970,-28.926904L138.085967,-28.542832L139.014414,-28.152936L139.936284,-27.757260L140.851552,-27.355847L141.033811,-27.274879M132.797453,-31.578571L133.770629,-31.221343L134.737311,-30.858051L135.697456,-30.488750L136.651020,-30.113490L137.597967,-29.732322L138.538263,-29.345297L139.471876,-28.952461L140.398778,-28.553861L141.318946,-28.149543L141.502169,-28.067997M133.222371,-32.398538L134.201573,-32.038193L135.174141,-31.671789L136.140031,-31.299381L137.099202,-30.921023L138.051617,-30.536769L138.997242,-30.146671L139.936048,-29.750777L140.868007,-29.349137L141.793096,-28.941798L141.977287,-28.859651M133.653875,-33.218306L134.639151,-32.854714L135.617649,-32.485069L136.589325,-32.109428L137.554140,-31.727847L138.512056,-31.340382L139.463042,-30.947087L140.407067,-30.548014L141.344106,-30.143213L142.274137,-29.732733L142.459300,-29.649960M134.092110,-34.038038L135.083507,-33.671066L136.067979,-33.298047L137.045482,-32.919040L138.015976,-32.534106L138.979427,-32.143300L139.935802,-31.746681L140.885073,-31.344301L141.827215,-30.936213L142.762206,-30.522470L142.948345,-30.439047M134.537224,-34.857906L135.534790,-34.487413L136.525278,-34.110880L137.508647,-33.728371L138.484858,-33.339946L139.453875,-32.945666L140.415667,-32.545588L141.370208,-32.139770L142.317474,-31.728267L143.257444,-31.311131L143.444561,-31.227032M134.989368,-35.678085L135.993150,-35.303924L136.989698,-34.923733L137.978972,-34.537577L138.960933,-34.145519L139.935547,-33.747624L140.902785,-33.343950L141.862620,-32.934557L142.815029,-32.519503L143.759995,-32.098842L143.948093,-32.014041M135.448700,-36.498757L136.458743,-36.120774L137.461393,-35.736772L138.456610,-35.346819L139.444355,-34.950981L140.424597,-34.549324L141.397306,-34.141909L142.362457,-33.728800L143.320029,-33.310054L144.270005,-32.885729L144.459088,-32.800200M135.915379,-37.320109L136.931729,-36.938143L137.940523,-36.550171L138.941719,-36.156263L139.935282,-35.756490L140.921180,-35.350918L141.899385,-34.939613L142.869874,-34.522638L143.832626,-34.100055L144.787627,-33.671923L144.977695,-33.585636" /><path stroke="#555555" stroke-width="0.18512859539877732" stroke-opacity="0.7200000000000001" d="M138.41511698929318,-31.98076094651667 V90zV-90zH180zH-180z"/></g></svg>
